<svg width="16" height="22" viewBox="0 0 16 22" xmlns="http://www.w3.org/2000/svg">
<path d="M9.5 0.336731C9.5 0.336731 10.24 2.98673 10.24 5.13673C10.24 7.19673 8.89 8.86673 6.83 8.86673C4.76 8.86673 3.2 7.19673 3.2 5.13673L3.23 4.77673C1.21 7.17673 0 10.2867 0 13.6667C0 18.0867 3.58 21.6667 8 21.6667C12.42 21.6667 16 18.0867 16 13.6667C16 8.27673 13.41 3.46673 9.5 0.336731ZM7.71 18.6667C5.93 18.6667 4.49 17.2667 4.49 15.5267C4.49 13.9067 5.54 12.7667 7.3 12.4067C9.07 12.0467 10.9 11.1967 11.92 9.82673C12.31 11.1167 12.51 12.4767 12.51 13.8667C12.51 16.5167 10.36 18.6667 7.71 18.6667Z"/>
</svg>
